mtllib ./Platforms_5.mtl
g Platforms
v -159.4382 -1.1 300.7752
v -161.642 4.524935 279.1463
v -161.642 -1.1 279.1463
v -161.0911 4.524935 284.5536
v -161.642 6.399914 279.1463
v -159.4382 -1.1 300.7752
v -197.9014 4.524935 288.3042
v -161.0911 4.524935 284.5536
v -196.2486 -1.1 304.5258
v -161.642 6.399914 279.1463
v -198.4523 6.399916 282.897
v -196.2486 -1.1 304.5258
v -198.4523 4.524935 282.897
v -197.9014 4.524935 288.3042
v -198.4523 -1.1 282.897
v -198.4523 6.399916 282.897
v -161.642 -1.1 279.1463
v -198.4523 4.524935 282.897
v -198.4523 -1.1 282.897
v -161.642 4.524935 279.1463
v -203.9617 -1.1 228.8248
v -201.758 4.524937 250.4536
v -201.758 -1.1 250.4536
v -202.3089 4.524937 245.0464
v -201.758 6.399916 250.4536
v -203.9617 -1.1 228.8248
v -165.4986 4.524937 241.2958
v -202.3089 4.524937 245.0464
v -167.1514 -1.1 225.0741
v -201.758 6.399916 250.4536
v -164.9477 6.399916 246.703
v -167.1514 -1.1 225.0741
v -164.9477 4.524937 246.703
v -165.4986 4.524937 241.2958
v -164.9477 -1.1 246.703
v -164.9477 6.399916 246.703
v -201.758 -1.1 250.4536
v -164.9477 4.524937 246.703
v -164.9477 -1.1 246.703
v -201.758 4.524937 250.4536
v -198.4523 6.399916 282.897
v -164.9477 6.399916 246.703
v -161.642 6.399914 279.1463
v -201.758 6.399916 250.4536
v -161.642 6.399914 279.1463
v -164.9477 4.524937 246.703
v -161.642 4.524935 279.1463
v -164.9477 6.399916 246.703
v -161.642 4.524935 279.1463
v -201.758 4.524937 250.4536
v -198.4523 4.524935 282.897
v -164.9477 4.524937 246.703
v -198.4523 4.524935 282.897
v -201.758 6.399916 250.4536
v -198.4523 6.399916 282.897
v -201.758 4.524937 250.4536

vn 0.9948492 -3.051758E-07 -0.1013657
vn 0.9948492 -1.63487E-07 -0.1013656
vn 0.9948492 -3.051758E-07 -0.1013657
vn 0.9948492 -3.016936E-07 -0.1013657
vn 0.9948492 0 -0.1013655
vn 0.04533214 0.8944272 0.44491
vn 0.04533214 0.8944272 0.4449101
vn 0.04533214 0.8944272 0.44491
vn 0.04533214 0.8944272 0.4449101
vn 0.04533214 0.8944272 0.4449101
vn 0.04533214 0.8944272 0.4449101
vn -0.9948492 0 0.1013657
vn -0.9948492 0 0.1013656
vn -0.9948492 0 0.1013657
vn -0.9948492 0 0.1013657
vn -0.9948492 0 0.1013655
vn -0.1013657 0 -0.9948492
vn -0.1013657 0 -0.9948492
vn -0.1013657 0 -0.9948492
vn -0.1013657 0 -0.9948492
vn -0.9948492 -2.543132E-07 0.1013657
vn -0.9948492 -1.743862E-07 0.1013656
vn -0.9948492 -2.543132E-07 0.1013657
vn -0.9948492 -2.531524E-07 0.1013657
vn -0.9948492 0 0.1013655
vn -0.04533214 0.8944272 -0.4449101
vn -0.04533214 0.8944272 -0.4449101
vn -0.04533214 0.8944272 -0.4449101
vn -0.04533214 0.8944272 -0.4449101
vn -0.04533215 0.8944271 -0.4449102
vn -0.04533215 0.8944271 -0.4449102
vn 0.9948492 0 -0.1013657
vn 0.9948492 0 -0.1013656
vn 0.9948492 0 -0.1013657
vn 0.9948492 0 -0.1013657
vn 0.9948492 0 -0.1013655
vn 0.1013657 0 0.9948492
vn 0.1013657 0 0.9948492
vn 0.1013657 0 0.9948492
vn 0.1013657 0 0.9948492
vn 0 1 0
vn 0 1 0
vn 0 1 0
vn 0 1 0
vn 0.9948492 0 -0.1013655
vn 0.9948492 0 -0.1013656
vn 0.9948492 -1.63487E-07 -0.1013656
vn 0.9948492 0 -0.1013655
vn 0 -1 0
vn 0 -1 0
vn 0 -1 0
vn 0 -1 0
vn -0.9948492 0 0.1013656
vn -0.9948492 0 0.1013655
vn -0.9948492 0 0.1013655
vn -0.9948492 -1.743862E-07 0.1013656

vt 0.375 0.125
vt 0.625 0.1875
vt 0.625 0
vt 0.5625 0.21875
vt 0.625 0.25
vt 0.375 0.125
vt 0.5625 0.53125
vt 0.5625 0.21875
vt 0.375 0.625
vt 0.625 0.25
vt 0.625 0.5
vt 0.375 0.625
vt 0.625 0.5625
vt 0.5625 0.53125
vt 0.625 0.75
vt 0.625 0.5
vt 0.625 0
vt 0.875 0.1875
vt 0.875 0
vt 0.625 0.1875
vt 0.375 0.125
vt 0.625 0.1875
vt 0.625 0
vt 0.5625 0.21875
vt 0.625 0.25
vt 0.375 0.125
vt 0.5625 0.53125
vt 0.5625 0.21875
vt 0.375 0.625
vt 0.625 0.25
vt 0.625 0.5
vt 0.375 0.625
vt 0.625 0.5625
vt 0.5625 0.53125
vt 0.625 0.75
vt 0.625 0.5
vt 0.625 0
vt 0.875 0.1875
vt 0.875 0
vt 0.625 0.1875
vt 0.625 0.5
vt 0.625 0.5
vt 0.625 0.25
vt 0.625 0.25
vt 0.625 0.25
vt 0.625 0.5625
vt 0.625 0.1875
vt 0.625 0.5
vt 0.625 0.1875
vt 0.625 0.1875
vt 0.875 0.1875
vt 0.875 0.1875
vt 0.625 0.5625
vt 0.625 0.25
vt 0.625 0.5
vt 0.625 0.1875

usemtl WhiteSmooth
usemap WhiteSmooth
f 2/2/2 1/1/1 3/3/3
f 4/4/4 1/1/1 2/2/2
f 5/5/5 4/4/4 2/2/2
f 7/7/7 6/6/6 8/8/8
f 9/9/9 6/6/6 7/7/7
f 10/10/10 7/7/7 8/8/8
f 11/11/11 7/7/7 10/10/10
f 13/13/13 12/12/12 14/14/14
f 15/15/15 12/12/12 13/13/13
f 16/16/16 13/13/13 14/14/14
f 18/18/18 17/17/17 19/19/19
f 20/20/20 17/17/17 18/18/18
f 22/22/22 21/21/21 23/23/23
f 24/24/24 21/21/21 22/22/22
f 25/25/25 24/24/24 22/22/22
f 27/27/27 26/26/26 28/28/28
f 29/29/29 26/26/26 27/27/27
f 30/30/30 27/27/27 28/28/28
f 31/31/31 27/27/27 30/30/30
f 33/33/33 32/32/32 34/34/34
f 35/35/35 32/32/32 33/33/33
f 36/36/36 33/33/33 34/34/34
f 38/38/38 37/37/37 39/39/39
f 40/40/40 37/37/37 38/38/38
f 42/42/42 41/41/41 43/43/43
f 44/44/44 41/41/41 42/42/42
f 46/46/46 45/45/45 47/47/47
f 48/48/48 45/45/45 46/46/46
f 50/50/50 49/49/49 51/51/51
f 52/52/52 49/49/49 50/50/50
f 54/54/54 53/53/53 55/55/55
f 56/56/56 53/53/53 54/54/54
