mtllib ./Platforms_4.mtl
g Platforms
v -68.57678 -1.1 87.7605
v -79.47897 3.600025 100.4686
v -79.47897 -1.1 100.4686
v -76.75343 3.600025 97.2916
v -79.47897 5.1667 100.4686
v -68.57678 -1.1 87.7605
v -50.64218 3.600025 119.6922
v -76.75343 3.600025 97.2916
v -42.46555 -1.1 110.1611
v -79.47897 5.1667 100.4686
v -53.36773 5.1667 122.8692
v -42.46555 -1.1 110.1611
v -53.36773 3.600025 122.8692
v -50.64218 3.600025 119.6922
v -53.36773 -1.1 122.8692
v -53.36773 5.1667 122.8692
v -79.47897 -1.1 100.4686
v -53.36773 3.600025 122.8692
v -53.36773 -1.1 122.8692
v -79.47897 3.600025 100.4686
v -80.62321 -1.1 154.6395
v -69.72102 3.600025 141.9314
v -69.72103 -1.1 141.9314
v -72.44657 3.600025 145.1084
v -69.72102 5.1667 141.9314
v -80.62321 -1.1 154.6395
v -98.55782 3.600025 122.7078
v -72.44657 3.600025 145.1084
v -106.7345 -1.1 132.2389
v -69.72102 5.1667 141.9314
v -95.83227 5.1667 119.5308
v -106.7345 -1.1 132.2389
v -95.83227 3.600025 119.5308
v -98.55782 3.600025 122.7078
v -95.83227 -1.1 119.5308
v -95.83227 5.1667 119.5308
v -69.72103 -1.1 141.9314
v -95.83227 3.600025 119.5308
v -95.83227 -1.1 119.5308
v -69.72102 3.600025 141.9314
v -53.36773 5.1667 122.8692
v -95.83227 5.1667 119.5308
v -79.47897 5.1667 100.4686
v -69.72102 5.1667 141.9314
v -79.47897 5.1667 100.4686
v -95.83227 3.600025 119.5308
v -79.47897 3.600025 100.4686
v -95.83227 5.1667 119.5308
v -79.47897 3.600025 100.4686
v -69.72102 3.600025 141.9314
v -53.36773 3.600025 122.8692
v -95.83227 3.600025 119.5308
v -53.36773 3.600025 122.8692
v -69.72102 5.1667 141.9314
v -53.36773 5.1667 122.8692
v -69.72102 3.600025 141.9314

vn -0.7589757 -3.051758E-07 -0.651119
vn -0.7589757 -1.63487E-07 -0.6511191
vn -0.7589757 -3.051758E-07 -0.651119
vn -0.7589757 -3.016936E-07 -0.651119
vn -0.7589756 0 -0.6511192
vn 0.2911893 0.8944272 -0.3394243
vn 0.2911893 0.8944272 -0.3394243
vn 0.2911893 0.8944272 -0.3394243
vn 0.2911893 0.8944272 -0.3394243
vn 0.2911893 0.8944272 -0.3394243
vn 0.2911893 0.8944272 -0.3394243
vn 0.7589757 0 0.651119
vn 0.7589757 0 0.6511191
vn 0.7589757 0 0.651119
vn 0.7589757 0 0.651119
vn 0.7589756 0 0.6511192
vn -0.651119 0 0.7589757
vn -0.651119 0 0.7589757
vn -0.651119 0 0.7589757
vn -0.651119 0 0.7589757
vn 0.7589757 -2.543132E-07 0.651119
vn 0.7589757 -1.743862E-07 0.6511191
vn 0.7589757 -2.543132E-07 0.651119
vn 0.7589757 -2.531524E-07 0.651119
vn 0.7589756 0 0.6511192
vn -0.2911893 0.8944272 0.3394243
vn -0.2911893 0.8944272 0.3394243
vn -0.2911893 0.8944272 0.3394243
vn -0.2911893 0.8944272 0.3394243
vn -0.2911893 0.8944271 0.3394243
vn -0.2911893 0.8944271 0.3394243
vn -0.7589757 0 -0.651119
vn -0.7589757 0 -0.6511191
vn -0.7589757 0 -0.651119
vn -0.7589757 0 -0.651119
vn -0.7589756 0 -0.6511192
vn 0.651119 0 -0.7589757
vn 0.651119 0 -0.7589757
vn 0.651119 0 -0.7589757
vn 0.651119 0 -0.7589757
vn 0 1 0
vn 0 1 0
vn 0 1 0
vn 0 1 0
vn -0.7589756 0 -0.6511192
vn -0.7589757 0 -0.6511191
vn -0.7589757 -1.63487E-07 -0.6511191
vn -0.7589756 0 -0.6511192
vn 0 -1 0
vn 0 -1 0
vn 0 -1 0
vn 0 -1 0
vn 0.7589757 0 0.6511191
vn 0.7589756 0 0.6511192
vn 0.7589756 0 0.6511192
vn 0.7589757 -1.743862E-07 0.6511191

vt 0.375 0.125
vt 0.625 0.1875
vt 0.625 0
vt 0.5625 0.21875
vt 0.625 0.25
vt 0.375 0.125
vt 0.5625 0.53125
vt 0.5625 0.21875
vt 0.375 0.625
vt 0.625 0.25
vt 0.625 0.5
vt 0.375 0.625
vt 0.625 0.5625
vt 0.5625 0.53125
vt 0.625 0.75
vt 0.625 0.5
vt 0.625 0
vt 0.875 0.1875
vt 0.875 0
vt 0.625 0.1875
vt 0.375 0.125
vt 0.625 0.1875
vt 0.625 0
vt 0.5625 0.21875
vt 0.625 0.25
vt 0.375 0.125
vt 0.5625 0.53125
vt 0.5625 0.21875
vt 0.375 0.625
vt 0.625 0.25
vt 0.625 0.5
vt 0.375 0.625
vt 0.625 0.5625
vt 0.5625 0.53125
vt 0.625 0.75
vt 0.625 0.5
vt 0.625 0
vt 0.875 0.1875
vt 0.875 0
vt 0.625 0.1875
vt 0.625 0.5
vt 0.625 0.5
vt 0.625 0.25
vt 0.625 0.25
vt 0.625 0.25
vt 0.625 0.5625
vt 0.625 0.1875
vt 0.625 0.5
vt 0.625 0.1875
vt 0.625 0.1875
vt 0.875 0.1875
vt 0.875 0.1875
vt 0.625 0.5625
vt 0.625 0.25
vt 0.625 0.5
vt 0.625 0.1875

usemtl WhiteSmooth
usemap WhiteSmooth
f 2/2/2 1/1/1 3/3/3
f 4/4/4 1/1/1 2/2/2
f 5/5/5 4/4/4 2/2/2
f 7/7/7 6/6/6 8/8/8
f 9/9/9 6/6/6 7/7/7
f 10/10/10 7/7/7 8/8/8
f 11/11/11 7/7/7 10/10/10
f 13/13/13 12/12/12 14/14/14
f 15/15/15 12/12/12 13/13/13
f 16/16/16 13/13/13 14/14/14
f 18/18/18 17/17/17 19/19/19
f 20/20/20 17/17/17 18/18/18
f 22/22/22 21/21/21 23/23/23
f 24/24/24 21/21/21 22/22/22
f 25/25/25 24/24/24 22/22/22
f 27/27/27 26/26/26 28/28/28
f 29/29/29 26/26/26 27/27/27
f 30/30/30 27/27/27 28/28/28
f 31/31/31 27/27/27 30/30/30
f 33/33/33 32/32/32 34/34/34
f 35/35/35 32/32/32 33/33/33
f 36/36/36 33/33/33 34/34/34
f 38/38/38 37/37/37 39/39/39
f 40/40/40 37/37/37 38/38/38
f 42/42/42 41/41/41 43/43/43
f 44/44/44 41/41/41 42/42/42
f 46/46/46 45/45/45 47/47/47
f 48/48/48 45/45/45 46/46/46
f 50/50/50 49/49/49 51/51/51
f 52/52/52 49/49/49 50/50/50
f 54/54/54 53/53/53 55/55/55
f 56/56/56 53/53/53 54/54/54
