mtllib ./Platforms_1.mtl
g Platforms
v -159.3966 -0.0142746 300.7768
v -161.6004 5.610661 279.1479
v -161.6004 -0.0142746 279.1479
v -161.0494 5.610661 284.5551
v -161.6004 7.48564 279.1479
v -159.3966 -0.0142746 300.7768
v -197.8597 5.610661 288.3058
v -161.0494 5.610661 284.5551
v -196.2069 -0.0142746 304.5274
v -161.6004 7.48564 279.1479
v -198.4107 7.485641 282.8985
v -196.2069 -0.0142746 304.5274
v -198.4107 5.610661 282.8985
v -197.8597 5.610661 288.3058
v -198.4107 -0.0142746 282.8985
v -198.4107 7.485641 282.8985
v -161.6004 -0.0142746 279.1479
v -198.4107 5.610661 282.8985
v -198.4107 -0.0142746 282.8985
v -161.6004 5.610661 279.1479
v -203.9201 -0.0142746 228.8263
v -201.7163 5.610662 250.4552
v -201.7163 -0.0142746 250.4552
v -202.2673 5.610662 245.048
v -201.7163 7.485641 250.4552
v -203.9201 -0.0142746 228.8263
v -165.457 5.610662 241.2974
v -202.2673 5.610662 245.048
v -167.1098 -0.0142746 225.0757
v -201.7163 7.485641 250.4552
v -164.906 7.485641 246.7046
v -167.1098 -0.0142746 225.0757
v -164.906 5.610662 246.7046
v -165.457 5.610662 241.2974
v -164.906 -0.0142746 246.7046
v -164.906 7.485641 246.7046
v -201.7163 -0.0142746 250.4552
v -164.906 5.610662 246.7046
v -164.906 -0.0142746 246.7046
v -201.7163 5.610662 250.4552
v -198.4107 7.485641 282.8985
v -164.906 7.485641 246.7046
v -161.6004 7.48564 279.1479
v -201.7163 7.485641 250.4552
v -161.6004 7.48564 279.1479
v -164.906 5.610662 246.7046
v -161.6004 5.610661 279.1479
v -164.906 7.485641 246.7046
v -161.6004 5.610661 279.1479
v -201.7163 5.610662 250.4552
v -198.4107 5.610661 282.8985
v -164.906 5.610662 246.7046
v -198.4107 5.610661 282.8985
v -201.7163 7.485641 250.4552
v -198.4107 7.485641 282.8985
v -201.7163 5.610662 250.4552

vn 0.9948492 -3.051758E-07 -0.1013657
vn 0.9948492 -1.63487E-07 -0.1013656
vn 0.9948492 -3.051758E-07 -0.1013657
vn 0.9948492 -3.016936E-07 -0.1013657
vn 0.9948492 0 -0.1013655
vn 0.04533214 0.8944272 0.44491
vn 0.04533214 0.8944272 0.4449101
vn 0.04533214 0.8944272 0.44491
vn 0.04533214 0.8944272 0.4449101
vn 0.04533214 0.8944272 0.4449101
vn 0.04533214 0.8944272 0.4449101
vn -0.9948492 0 0.1013657
vn -0.9948492 0 0.1013656
vn -0.9948492 0 0.1013657
vn -0.9948492 0 0.1013657
vn -0.9948492 0 0.1013655
vn -0.1013657 0 -0.9948492
vn -0.1013657 0 -0.9948492
vn -0.1013657 0 -0.9948492
vn -0.1013657 0 -0.9948492
vn -0.9948492 -2.543132E-07 0.1013657
vn -0.9948492 -1.743862E-07 0.1013656
vn -0.9948492 -2.543132E-07 0.1013657
vn -0.9948492 -2.531524E-07 0.1013657
vn -0.9948492 0 0.1013655
vn -0.04533214 0.8944272 -0.4449101
vn -0.04533214 0.8944272 -0.4449101
vn -0.04533214 0.8944272 -0.4449101
vn -0.04533214 0.8944272 -0.4449101
vn -0.04533215 0.8944271 -0.4449102
vn -0.04533215 0.8944271 -0.4449102
vn 0.9948492 0 -0.1013657
vn 0.9948492 0 -0.1013656
vn 0.9948492 0 -0.1013657
vn 0.9948492 0 -0.1013657
vn 0.9948492 0 -0.1013655
vn 0.1013657 0 0.9948492
vn 0.1013657 0 0.9948492
vn 0.1013657 0 0.9948492
vn 0.1013657 0 0.9948492
vn 0 1 0
vn 0 1 0
vn 0 1 0
vn 0 1 0
vn 0.9948492 0 -0.1013655
vn 0.9948492 0 -0.1013656
vn 0.9948492 -1.63487E-07 -0.1013656
vn 0.9948492 0 -0.1013655
vn 0 -1 0
vn 0 -1 0
vn 0 -1 0
vn 0 -1 0
vn -0.9948492 0 0.1013656
vn -0.9948492 0 0.1013655
vn -0.9948492 0 0.1013655
vn -0.9948492 -1.743862E-07 0.1013656

vt 0.375 0.125
vt 0.625 0.1875
vt 0.625 0
vt 0.5625 0.21875
vt 0.625 0.25
vt 0.375 0.125
vt 0.5625 0.53125
vt 0.5625 0.21875
vt 0.375 0.625
vt 0.625 0.25
vt 0.625 0.5
vt 0.375 0.625
vt 0.625 0.5625
vt 0.5625 0.53125
vt 0.625 0.75
vt 0.625 0.5
vt 0.625 0
vt 0.875 0.1875
vt 0.875 0
vt 0.625 0.1875
vt 0.375 0.125
vt 0.625 0.1875
vt 0.625 0
vt 0.5625 0.21875
vt 0.625 0.25
vt 0.375 0.125
vt 0.5625 0.53125
vt 0.5625 0.21875
vt 0.375 0.625
vt 0.625 0.25
vt 0.625 0.5
vt 0.375 0.625
vt 0.625 0.5625
vt 0.5625 0.53125
vt 0.625 0.75
vt 0.625 0.5
vt 0.625 0
vt 0.875 0.1875
vt 0.875 0
vt 0.625 0.1875
vt 0.625 0.5
vt 0.625 0.5
vt 0.625 0.25
vt 0.625 0.25
vt 0.625 0.25
vt 0.625 0.5625
vt 0.625 0.1875
vt 0.625 0.5
vt 0.625 0.1875
vt 0.625 0.1875
vt 0.875 0.1875
vt 0.875 0.1875
vt 0.625 0.5625
vt 0.625 0.25
vt 0.625 0.5
vt 0.625 0.1875

usemtl New Material
usemap New Material
f 2/2/2 1/1/1 3/3/3
f 4/4/4 1/1/1 2/2/2
f 5/5/5 4/4/4 2/2/2
f 7/7/7 6/6/6 8/8/8
f 9/9/9 6/6/6 7/7/7
f 10/10/10 7/7/7 8/8/8
f 11/11/11 7/7/7 10/10/10
f 13/13/13 12/12/12 14/14/14
f 15/15/15 12/12/12 13/13/13
f 16/16/16 13/13/13 14/14/14
f 18/18/18 17/17/17 19/19/19
f 20/20/20 17/17/17 18/18/18
f 22/22/22 21/21/21 23/23/23
f 24/24/24 21/21/21 22/22/22
f 25/25/25 24/24/24 22/22/22
f 27/27/27 26/26/26 28/28/28
f 29/29/29 26/26/26 27/27/27
f 30/30/30 27/27/27 28/28/28
f 31/31/31 27/27/27 30/30/30
f 33/33/33 32/32/32 34/34/34
f 35/35/35 32/32/32 33/33/33
f 36/36/36 33/33/33 34/34/34
f 38/38/38 37/37/37 39/39/39
f 40/40/40 37/37/37 38/38/38
f 42/42/42 41/41/41 43/43/43
f 44/44/44 41/41/41 42/42/42
f 46/46/46 45/45/45 47/47/47
f 48/48/48 45/45/45 46/46/46
f 50/50/50 49/49/49 51/51/51
f 52/52/52 49/49/49 50/50/50
f 54/54/54 53/53/53 55/55/55
f 56/56/56 53/53/53 54/54/54
