mtllib ./PrimaryJumpRamp_10.mtl
g PrimaryJumpRamp
v -277.0847 -1.299999 157.4698
v -305.2133 4.700001 154.9751
v -280.9867 -1.299999 166.0249
v -301.3113 4.700001 146.4199
v -284.8887 -1.299999 174.5801
v -309.1154 4.700001 163.5302
v -309.3869 8.700001 142.7366
v -272.9111 -1.299999 169.7082
v -313.2889 8.700001 151.2918
v -269.0091 -1.299999 161.1531
v -317.1909 8.700001 159.8469
v -276.8131 -1.299999 178.2634
v -269.0091 -1.299999 161.1531
v -280.9867 -1.299999 166.0249
v -272.9111 -1.299999 169.7082
v -277.0847 -1.299999 157.4698
v -276.8131 -1.299999 178.2634
v -284.8887 -1.299999 174.5801
v -284.8887 -1.299999 174.5801
v -317.1909 8.700001 159.8469
v -276.8131 -1.299999 178.2634
v -284.8887 -1.299999 174.5801
v -309.1154 4.700001 163.5302
v -317.1909 8.700001 159.8469
v -269.0091 -1.299999 161.1531
v -301.3113 4.700001 146.4199
v -277.0847 -1.299999 157.4698
v -309.3869 8.700001 142.7366
v -305.3491 4.700001 144.5783
v -309.3869 6.700001 142.7366
v -305.3491 -1.299999 144.5783
v -309.3869 -1.299999 142.7366
v -269.0091 -1.299999 161.1531
v -309.3869 8.700001 142.7366
v -301.3113 4.700001 146.4199
v -301.3113 4.700001 146.4199
v -307.3001 4.700001 148.8558
v -305.2133 4.700001 154.9751
v -305.3491 4.700001 144.5783
v -311.2021 4.700001 157.411
v -309.1154 4.700001 163.5302
v -313.1531 4.700001 161.6886
v -309.1154 4.700001 163.5302
v -317.1909 6.700001 159.8469
v -317.1909 8.700001 159.8469
v -313.1531 4.700001 161.6886
v -317.1909 -1.299999 159.8469
v -313.1531 -1.299999 161.6886
v -309.3869 6.700001 142.7366
v -313.2889 8.700001 151.2918
v -311.3379 6.700001 147.0142
v -309.3869 8.700001 142.7366
v -315.2399 6.700001 155.5693
v -317.1909 6.700001 159.8469
v -317.1909 8.700001 159.8469
v -311.3379 6.700001 147.0142
v -311.2021 4.700001 157.411
v -307.3001 4.700001 148.8558
v -315.2399 6.700001 155.5693
v -305.3491 4.700001 144.5783
v -307.3001 -1.299999 148.8558
v -307.3001 4.700001 148.8558
v -305.3491 -1.299999 144.5783
v -307.3001 4.700001 148.8558
v -311.3379 -1.299999 147.0142
v -311.3379 6.700001 147.0142
v -307.3001 -1.299999 148.8558
v -311.3379 6.700001 147.0142
v -309.3869 -1.299999 142.7366
v -309.3869 6.700001 142.7366
v -311.3379 -1.299999 147.0142
v -315.2399 6.700001 155.5693
v -311.2021 -1.299999 157.411
v -311.2021 4.700001 157.411
v -315.2399 -1.299999 155.5693
v -311.2021 4.700001 157.411
v -313.1531 -1.299999 161.6886
v -313.1531 4.700001 161.6886
v -311.2021 -1.299999 157.411
v -317.1909 6.700001 159.8469
v -315.2399 -1.299999 155.5693
v -315.2399 6.700001 155.5693
v -317.1909 -1.299999 159.8469

vn -0.4068892 -0.8944272 -0.1855835
vn -0.4068892 -0.8944272 -0.1855835
vn -0.4068892 -0.8944272 -0.1855835
vn -0.4068892 -0.8944272 -0.1855835
vn -0.4068892 -0.8944272 -0.1855835
vn -0.4068892 -0.8944272 -0.1855835
vn 0.4068891 0.8944272 0.1855835
vn 0.4068891 0.8944273 0.1855835
vn 0.4068891 0.8944273 0.1855835
vn 0.4068891 0.8944272 0.1855835
vn 0.4068891 0.8944273 0.1855835
vn 0.4068891 0.8944273 0.1855835
vn 0 -1 0
vn 0 -1 0
vn 0 -1 0
vn 0 -1 0
vn 0 -1 0
vn 0 -1 0
vn -0.4149773 6.835934E-07 0.9098318
vn -0.4149778 1.418904E-07 0.9098315
vn -0.4149773 6.835934E-07 0.9098318
vn -0.4149773 6.835934E-07 0.9098318
vn -0.4149773 5.979661E-07 0.9098318
vn -0.4149778 1.418904E-07 0.9098315
vn 0.4149773 -9.765621E-07 -0.9098318
vn 0.4149773 -8.893192E-07 -0.9098318
vn 0.4149773 -9.765621E-07 -0.9098318
vn 0.4149776 -4.246383E-07 -0.9098316
vn 0.4149777 3.125E-07 -0.9098316
vn 0.414978 4.882812E-07 -0.9098315
vn 0.4149773 1.116072E-07 -0.9098318
vn 0.4149773 1.116072E-07 -0.9098318
vn 0.4149773 -9.765621E-07 -0.9098318
vn 0.4149776 -4.246383E-07 -0.9098316
vn 0.4149773 -8.893192E-07 -0.9098318
vn -2.221271E-07 -1 -1.013129E-07
vn -1.817403E-07 -1 -8.289238E-08
vn 0 -1 0
vn -2.221271E-07 -1 -1.013129E-07
vn 9.692801E-08 -1 4.420919E-08
vn 1.184676E-07 -1 5.403347E-08
vn 1.184676E-07 -1 5.403347E-08
vn -0.4149773 5.979661E-07 0.9098318
vn -0.4149784 -5.371094E-07 0.9098313
vn -0.4149778 1.418904E-07 0.9098315
vn -0.4149781 -2.34375E-07 0.9098314
vn -0.4149777 1.116071E-07 0.9098316
vn -0.4149777 1.116071E-07 0.9098316
vn -0.9098318 0 -0.4149773
vn -0.9098318 0 -0.4149773
vn -0.9098318 0 -0.4149773
vn -0.9098318 0 -0.4149773
vn -0.9098318 0 -0.4149773
vn -0.9098318 0 -0.4149773
vn -0.9098318 0 -0.4149773
vn -0.6433481 -0.7071068 -0.2934332
vn -0.6433481 -0.7071068 -0.2934332
vn -0.6433481 -0.7071068 -0.2934332
vn -0.643348 -0.7071069 -0.2934332
vn 0.9098318 0 0.4149773
vn 0.9098318 0 0.4149773
vn 0.9098318 0 0.4149773
vn 0.9098318 0 0.4149773
vn -0.4149771 5.301338E-07 0.9098319
vn -0.4149771 5.301337E-07 0.9098319
vn -0.4149771 5.301337E-07 0.9098319
vn -0.4149771 5.301337E-07 0.9098319
vn -0.9098318 0 -0.4149773
vn -0.9098318 0 -0.4149773
vn -0.9098318 0 -0.4149773
vn -0.9098318 0 -0.4149773
vn 0.4149775 0 -0.9098316
vn 0.4149775 0 -0.9098316
vn 0.4149775 0 -0.9098316
vn 0.4149775 0 -0.9098316
vn 0.9098318 0 0.4149773
vn 0.9098318 0 0.4149773
vn 0.9098318 0 0.4149773
vn 0.9098318 0 0.4149773
vn -0.9098318 0 -0.4149773
vn -0.9098318 0 -0.4149773
vn -0.9098318 0 -0.4149773
vn -0.9098318 0 -0.4149773

vt 0.375 0
vt 0.46875 0.25
vt 0.46875 0
vt 0.375 0.25
vt 0.625 0
vt 0.625 0.25
vt 0.375 0.5
vt 0.46875 0.75
vt 0.46875 0.5
vt 0.375 0.75
vt 0.625 0.5
vt 0.625 0.75
vt 0.375 0.75
vt 0.46875 1
vt 0.46875 0.75
vt 0.375 1
vt 0.625 0.75
vt 0.625 1
vt 0.625 0
vt 0.875 0.25
vt 0.875 0
vt 0.625 0
vt 0.625 0.25
vt 0.875 0.25
vt 0.125 0
vt 0.375 0.25
vt 0.375 0
vt 0.375 0.5
vt 0.375 0.25
vt 0.375 0.375
vt 0.375 0.25
vt 0.375 0.375
vt 0.125 0
vt 0.125 0.25
vt 0.375 0.25
vt 0.375 0.25
vt 0.4375 0.25
vt 0.46875 0.25
vt 0.375 0.25
vt 0.5 0.25
vt 0.625 0.25
vt 0.625 0.25
vt 0.625 0.25
vt 0.625 0.375
vt 0.625 0.5
vt 0.625 0.25
vt 0.625 0.375
vt 0.625 0.25
vt 0.375 0.375
vt 0.46875 0.5
vt 0.4375 0.375
vt 0.375 0.5
vt 0.5 0.375
vt 0.625 0.375
vt 0.625 0.5
vt 0.4375 0.375
vt 0.5 0.25
vt 0.4375 0.25
vt 0.5 0.375
vt 0.375 0.25
vt 0.4375 0.25
vt 0.4375 0.25
vt 0.375 0.25
vt 0.4375 0.25
vt 0.4375 0.375
vt 0.4375 0.375
vt 0.4375 0.25
vt 0.4375 0.375
vt 0.375 0.375
vt 0.375 0.375
vt 0.4375 0.375
vt 0.5 0.375
vt 0.5 0.25
vt 0.5 0.25
vt 0.5 0.375
vt 0.5 0.25
vt 0.625 0.25
vt 0.625 0.25
vt 0.5 0.25
vt 0.625 0.375
vt 0.5 0.375
vt 0.5 0.375
vt 0.625 0.375

usemtl WhiteSmooth
usemap WhiteSmooth
f 2/2/2 1/1/1 3/3/3
f 4/4/4 1/1/1 2/2/2
f 5/5/5 2/2/2 3/3/3
f 6/6/6 2/2/2 5/5/5
f 8/8/8 7/7/7 9/9/9
f 10/10/10 7/7/7 8/8/8
f 11/11/11 8/8/8 9/9/9
f 12/12/12 8/8/8 11/11/11
f 14/14/14 13/13/13 15/15/15
f 16/16/16 13/13/13 14/14/14
f 17/17/17 14/14/14 15/15/15
f 18/18/18 14/14/14 17/17/17
f 20/20/20 19/19/19 21/21/21
f 23/23/23 22/22/22 24/24/24
f 26/26/26 25/25/25 27/27/27
f 29/29/29 28/28/28 26/26/26
f 30/30/30 28/28/28 29/29/29
f 31/31/31 30/30/30 29/29/29
f 32/32/32 30/30/30 31/31/31
f 34/34/34 33/33/33 35/35/35
f 37/37/37 36/36/36 38/38/38
f 39/39/39 36/36/36 37/37/37
f 40/40/40 37/37/37 38/38/38
f 41/41/41 40/40/40 38/38/38
f 42/42/42 40/40/40 41/41/41
f 44/44/44 43/43/43 45/45/45
f 46/46/46 43/43/43 44/44/44
f 47/47/47 46/46/46 44/44/44
f 48/48/48 46/46/46 47/47/47
f 50/50/50 49/49/49 51/51/51
f 52/52/52 49/49/49 50/50/50
f 53/53/53 50/50/50 51/51/51
f 54/54/54 50/50/50 53/53/53
f 55/55/55 50/50/50 54/54/54
f 57/57/57 56/56/56 58/58/58
f 59/59/59 56/56/56 57/57/57
f 61/61/61 60/60/60 62/62/62
f 63/63/63 60/60/60 61/61/61
f 65/65/65 64/64/64 66/66/66
f 67/67/67 64/64/64 65/65/65
f 69/69/69 68/68/68 70/70/70
f 71/71/71 68/68/68 69/69/69
f 73/73/73 72/72/72 74/74/74
f 75/75/75 72/72/72 73/73/73
f 77/77/77 76/76/76 78/78/78
f 79/79/79 76/76/76 77/77/77
f 81/81/81 80/80/80 82/82/82
f 83/83/83 80/80/80 81/81/81
