mtllib ./wideShort02_9.mtl
g wideShort02
v -165.3685 0.04999924 383.0694
v -186.1545 0.04999924 390.2041
v -165.6221 0.04999924 382.4726
v -186.408 0.04999924 389.6076
v -165.8951 0.04999924 381.8309
v -186.6767 0.04999924 388.976
v -166.1288 0.04999924 381.2817
v -186.9104 0.04999924 388.4267
v -166.3814 0.04999924 380.6877
v -187.1645 0.04999924 387.8294
v -166.6474 0.04999924 380.0618
v -187.4328 0.04999924 387.1981
v -166.9206 0.04999924 379.418
v -187.7094 0.04999924 386.5462
v -167.1955 0.04999924 378.7691
v -187.9883 0.04999924 385.8879
v -167.4653 0.04999924 378.1309
v -188.2645 0.04999924 385.2346
v -167.7247 0.04999924 377.5155
v -188.5314 0.04999924 384.6014
v -167.9667 0.04999924 376.9392
v -188.7835 0.04999924 384.0009
v -168.1805 0.04999924 376.4241
v -189.0249 0.04999924 383.42
v -168.382 0.04999924 375.9319
v -189.2622 0.04999924 382.8409
v -168.5829 0.04999924 375.4359
v -189.4894 0.04999924 382.2804
v -168.7881 0.04999924 374.9267
v -189.7079 0.04999924 381.7381
v -168.9995 0.04999924 374.4016
v -189.9218 0.04999924 381.2068
v -169.2203 0.04999924 373.8549
v -190.1337 0.04999924 380.6823
v -169.4539 0.04999924 373.2815
v -190.3465 0.04999924 380.1601
v -169.7025 0.04999924 372.6787
v -190.5642 0.04999924 379.6329
v -169.9677 0.04999924 372.0452
v -190.7908 0.04999924 379.0922
v -170.2525 0.04999924 371.3766
v -191.0296 0.04999924 378.5324
v -170.5589 0.04999924 370.6708
v -191.2846 0.04999924 377.946
v -170.7908 0.04999924 370.1448
v -191.4743 0.04999924 377.5164
v -171.0294 0.04999924 369.6074
v -191.6935 0.04999924 377.0228
v -171.2809 0.04999924 369.0446
v -191.928 0.04999924 376.4981
v -171.543 0.04999924 368.4609
v -192.1749 0.04999924 375.9485
v -171.8136 0.04999924 367.8612
v -192.432 0.04999924 375.3787
v -172.0912 0.04999924 367.2488
v -192.6963 0.04999924 374.7958
v -172.3737 0.04999924 366.6284
v -192.9653 0.04999924 374.205
v -172.6584 0.04999924 366.0058
v -193.2371 0.04999924 373.6109
v -172.9439 0.04999924 365.3846
v -193.5087 0.04999924 373.0199
v -173.2276 0.04999924 364.7702
v -193.778 0.04999924 372.4366
v -173.5078 0.04999924 364.1663
v -194.0421 0.04999924 371.8676
v -173.7817 0.04999924 363.5794
v -194.2994 0.04999924 371.3163
v -174.0486 0.04999924 363.0114
v -194.5461 0.04999924 370.7912
v -174.3056 0.04999924 362.4681
v -194.7804 0.04999924 370.2962
v -174.5517 0.04999924 361.9523
v -194.9987 0.04999924 369.8391
v -174.8224 0.04999924 361.3917
v -195.2318 0.04999924 369.3567
v -175.1119 0.04999924 360.8043
v -195.4506 0.04999924 368.914
v -175.4053 0.04999924 360.2242
v -195.654 0.04999924 368.5139
v -175.6894 0.04999924 359.6758
v -195.8524 0.04999924 368.1327
v -176.0845 0.04999924 358.9336
v -196.1487 0.04999924 367.5782
v -176.46 0.04999924 358.2473
v -196.4184 0.04999924 367.0876
v -176.7967 0.04999924 357.6451
v -196.6718 0.04999924 366.6357
v -177.0869 0.04999924 357.1332
v -196.908 0.04999924 366.2198
v -177.3829 0.04999924 356.6121
v -197.2 0.04999924 365.7056

vn 7.106688E-09 1 1.861028E-08
vn 7.108337E-09 1 1.861505E-08
vn 7.409805E-09 1 1.939262E-08
vn 7.280147E-09 0.9999999 1.906435E-08
vn 7.54013E-09 1 1.971294E-08
vn 7.555868E-09 1 1.976512E-08
vn 7.469601E-09 1 1.953234E-08
vn 7.509132E-09 1 1.963211E-08
vn 7.261344E-09 1 1.89998E-08
vn 7.328765E-09 0.9999999 1.916728E-08
vn 6.943673E-09 1 1.818712E-08
vn 7.040102E-09 1 1.842628E-08
vn 6.510919E-09 1 1.707689E-08
vn 6.64322E-09 1 1.74076E-08
vn 5.93896E-09 1 1.560468E-08
vn 6.112622E-09 1 1.604017E-08
vn 5.197343E-09 1 1.369079E-08
vn 5.427295E-09 1 1.427152E-08
vn 4.214493E-09 1 1.113672E-08
vn 4.527462E-09 0.9999999 1.193725E-08
vn 3.07737E-09 1 8.178836E-09
vn 3.387978E-09 0.9999999 8.964049E-09
vn 2.048261E-09 1 5.507362E-09
vn 2.2742E-09 1 6.06602E-09
vn 1.15541E-09 1 3.147091E-09
vn 1.381041E-09 0.9999999 3.730355E-09
vn 3.896168E-10 1 1.070505E-09
vn 6.078405E-10 1 1.660754E-09
vn -2.083221E-10 1 -5.754855E-10
vn -2.776073E-11 1 -7.740052E-11
vn -6.331193E-10 1 -1.747078E-09
vn -5.115976E-10 1 -1.413463E-09
vn -8.876077E-10 1 -2.436455E-09
vn -8.363213E-10 1 -2.305282E-09
vn -9.799608E-10 1 -2.66414E-09
vn -9.984183E-10 1 -2.733363E-09
vn -9.232802E-10 1 -2.477405E-09
vn -1.00004E-09 1 -2.708057E-09
vn -7.322747E-10 1 -1.934631E-09
vn -8.518105E-10 1 -2.274814E-09
vn -4.215731E-10 1 -1.095069E-09
vn -5.673739E-10 1 -1.49121E-09
vn -1.343017E-10 1 -3.437156E-10
vn -2.430378E-10 1 -6.281625E-10
vn -5.289433E-12 1 -1.334053E-11
vn -1.129492E-11 1 -2.870359E-11
vn 0 1 0
vn 0 1 0
vn 0 0.9999999 0
vn 0 1 0
vn 0 1 0
vn 0 1 0
vn 0 1 0
vn 0 0.9999999 0
vn 0 1 0
vn 0 1 0
vn 0 1 0
vn 0 1 0
vn 0 1 0
vn 0 1 0
vn 0 1 0
vn 0 1 0
vn 0 1 0
vn 0 1 0
vn 0 1 0
vn 0 1 0
vn 0 1 0
vn 0 1 0
vn 0 1 0
vn 0 1 0
vn 0 1 0
vn 0 1 0
vn 0 1 0
vn 0 1 0
vn 0 1 0
vn 0 1 0
vn 0 1 0
vn 0 1 0
vn 0 1 0
vn 0 1 0
vn 0 1 0
vn 0 1 0
vn 0 0.9999999 0
vn 0 1 0
vn 0 1 0
vn 0 1 0
vn 0 1 0
vn 0 1 0
vn 0 1 0
vn 0 1 0
vn 0 1 0
vn 0 1 0

vt 0 0
vt 1 0
vt 0 0.04258047
vt 1 0.04258047
vt 0 0.08801894
vt 1 0.08801894
vt 0 0.127223
vt 1 0.127223
vt 0 0.1697375
vt 1 0.1697375
vt 0 0.2145971
vt 1 0.2145971
vt 0 0.2608233
vt 1 0.2608233
vt 0 0.3074478
vt 1 0.3074478
vt 0 0.3535008
vt 1 0.3535008
vt 0 0.3980098
vt 1 0.3980098
vt 0 0.4399377
vt 1 0.4399377
vt 0 0.4789327
vt 1 0.4789327
vt 0 0.5169849
vt 1 0.5169849
vt 0 0.5544675
vt 1 0.5544675
vt 0 0.5917444
vt 1 0.5917444
vt 0 0.6291921
vt 1 0.6291921
vt 0 0.6671797
vt 1 0.6671797
vt 0 0.7060738
vt 1 0.7060738
vt 0 0.7462452
vt 1 0.7462452
vt 0 0.7880694
vt 1 0.7880694
vt 0 0.8319164
vt 1 0.8319164
vt 0 0.8781589
vt 1 0.8781589
vt 0 0.9124234
vt 1 0.9124234
vt 0 0.9494322
vt 1 0.9494322
vt 0 0.9884928
vt 1 0.9884928
vt 0 1.029234
vt 1 1.029234
vt 0 1.071302
vt 1 1.071302
vt 0 1.114327
vt 1 1.114327
vt 0 1.157949
vt 1 1.157949
vt 0 1.201801
vt 1 1.201801
vt 0 1.245521
vt 1 1.245521
vt 0 1.288744
vt 1 1.288744
vt 0 1.331108
vt 1 1.331108
vt 0 1.37225
vt 1 1.37225
vt 0 1.411804
vt 1 1.411804
vt 0 1.449411
vt 1 1.449411
vt 0 1.484703
vt 1 1.484703
vt 0 1.522604
vt 1 1.522604
vt 0 1.560167
vt 1 1.560167
vt 0 1.596072
vt 1 1.596072
vt 0 1.630263
vt 1 1.630263
vt 0 1.678197
vt 1 1.678197
vt 0 1.72193
vt 1 1.72193
vt 0 1.761262
vt 1 1.761262
vt 0 1.795981
vt 1 1.795981
vt 0 1.834729
vt 1 1.834729

usemtl roadMaterial(Clone)
usemap roadMaterial(Clone)
f 2/2/2 1/1/1 4/4/4
f 1/1/1 3/3/3 4/4/4
f 4/4/4 3/3/3 6/6/6
f 3/3/3 5/5/5 6/6/6
f 6/6/6 5/5/5 8/8/8
f 5/5/5 7/7/7 8/8/8
f 8/8/8 7/7/7 10/10/10
f 7/7/7 9/9/9 10/10/10
f 10/10/10 9/9/9 12/12/12
f 9/9/9 11/11/11 12/12/12
f 12/12/12 11/11/11 14/14/14
f 11/11/11 13/13/13 14/14/14
f 14/14/14 13/13/13 16/16/16
f 13/13/13 15/15/15 16/16/16
f 16/16/16 15/15/15 18/18/18
f 15/15/15 17/17/17 18/18/18
f 18/18/18 17/17/17 20/20/20
f 17/17/17 19/19/19 20/20/20
f 20/20/20 19/19/19 22/22/22
f 19/19/19 21/21/21 22/22/22
f 22/22/22 21/21/21 24/24/24
f 21/21/21 23/23/23 24/24/24
f 24/24/24 23/23/23 26/26/26
f 23/23/23 25/25/25 26/26/26
f 26/26/26 25/25/25 28/28/28
f 25/25/25 27/27/27 28/28/28
f 28/28/28 27/27/27 30/30/30
f 27/27/27 29/29/29 30/30/30
f 30/30/30 29/29/29 32/32/32
f 29/29/29 31/31/31 32/32/32
f 32/32/32 31/31/31 34/34/34
f 31/31/31 33/33/33 34/34/34
f 34/34/34 33/33/33 36/36/36
f 33/33/33 35/35/35 36/36/36
f 36/36/36 35/35/35 38/38/38
f 35/35/35 37/37/37 38/38/38
f 38/38/38 37/37/37 40/40/40
f 37/37/37 39/39/39 40/40/40
f 40/40/40 39/39/39 42/42/42
f 39/39/39 41/41/41 42/42/42
f 42/42/42 41/41/41 44/44/44
f 41/41/41 43/43/43 44/44/44
f 44/44/44 43/43/43 46/46/46
f 43/43/43 45/45/45 46/46/46
f 46/46/46 45/45/45 48/48/48
f 45/45/45 47/47/47 48/48/48
f 48/48/48 47/47/47 50/50/50
f 47/47/47 49/49/49 50/50/50
f 50/50/50 49/49/49 52/52/52
f 49/49/49 51/51/51 52/52/52
f 52/52/52 51/51/51 54/54/54
f 51/51/51 53/53/53 54/54/54
f 54/54/54 53/53/53 56/56/56
f 53/53/53 55/55/55 56/56/56
f 56/56/56 55/55/55 58/58/58
f 55/55/55 57/57/57 58/58/58
f 58/58/58 57/57/57 60/60/60
f 57/57/57 59/59/59 60/60/60
f 60/60/60 59/59/59 62/62/62
f 59/59/59 61/61/61 62/62/62
f 62/62/62 61/61/61 64/64/64
f 61/61/61 63/63/63 64/64/64
f 64/64/64 63/63/63 66/66/66
f 63/63/63 65/65/65 66/66/66
f 66/66/66 65/65/65 68/68/68
f 65/65/65 67/67/67 68/68/68
f 68/68/68 67/67/67 70/70/70
f 67/67/67 69/69/69 70/70/70
f 70/70/70 69/69/69 72/72/72
f 69/69/69 71/71/71 72/72/72
f 72/72/72 71/71/71 74/74/74
f 71/71/71 73/73/73 74/74/74
f 74/74/74 73/73/73 76/76/76
f 73/73/73 75/75/75 76/76/76
f 76/76/76 75/75/75 78/78/78
f 75/75/75 77/77/77 78/78/78
f 78/78/78 77/77/77 80/80/80
f 77/77/77 79/79/79 80/80/80
f 80/80/80 79/79/79 82/82/82
f 79/79/79 81/81/81 82/82/82
f 82/82/82 81/81/81 84/84/84
f 81/81/81 83/83/83 84/84/84
f 84/84/84 83/83/83 86/86/86
f 83/83/83 85/85/85 86/86/86
f 86/86/86 85/85/85 88/88/88
f 85/85/85 87/87/87 88/88/88
f 88/88/88 87/87/87 90/90/90
f 87/87/87 89/89/89 90/90/90
f 90/90/90 89/89/89 92/92/92
f 89/89/89 91/91/91 92/92/92
